<svg data-v-fde0c5aa="" xmlns="http://www.w3.org/2000/svg" viewBox="0 0 300 300" class="iconAbove"><!----><defs data-v-fde0c5aa=""><!----></defs><rect data-v-fde0c5aa="" fill="transparent" x="0" y="0" width="300px" height="300px" class="logo-background-square"></rect><defs data-v-fde0c5aa=""><!----></defs><g data-v-fde0c5aa="" id="9686414b-2cb3-4704-b92f-60167eb305a5" fill="#000000" transform="matrix(3.5523977500635873,0,0,3.5523977500635873,19.538188309430886,166.79751367119906)"><path d="M2.87 10.53L3.78 5.22L5.60 5.22L4.10 12.05L1.62 12.05L0.13 5.22L1.95 5.22L2.87 10.53ZM9.88 5.73L9.88 5.22L11.47 5.22L11.47 12.05L9.88 12.05L9.88 11.55L9.88 11.55Q9.45 12.19 8.44 12.19L8.44 12.19L8.15 12.19L8.15 12.19Q6.41 12.19 6.41 10.35L6.41 10.35L6.41 6.93L6.41 6.93Q6.41 5.08 8.15 5.08L8.15 5.08L8.44 5.08L8.44 5.08Q9.45 5.08 9.88 5.73L9.88 5.73ZM9.59 10.57L9.59 10.57L9.59 6.71L9.59 6.71Q9.59 6.59 9.51 6.51L9.51 6.51L9.51 6.51Q9.44 6.43 9.32 6.43L9.32 6.43L8.55 6.43L8.55 6.43Q8.44 6.43 8.37 6.51L8.37 6.51L8.37 6.51Q8.29 6.59 8.29 6.71L8.29 6.71L8.29 10.57L8.29 10.57Q8.29 10.68 8.37 10.77L8.37 10.77L8.37 10.77Q8.44 10.85 8.55 10.85L8.55 10.85L9.32 10.85L9.32 10.85Q9.44 10.85 9.51 10.77L9.51 10.77L9.51 10.77Q9.59 10.68 9.59 10.57ZM14.62 6.71L14.62 12.05L12.74 12.05L12.74 5.22L14.45 5.22L14.45 5.57L14.45 5.57Q14.88 5.08 15.76 5.08L15.76 5.08L16.06 5.08L16.06 5.08Q17.79 5.08 17.79 6.93L17.79 6.93L17.79 12.05L15.92 12.05L15.92 6.71L15.92 6.71Q15.92 6.59 15.84 6.51L15.84 6.51L15.84 6.51Q15.76 6.43 15.65 6.43L15.65 6.43L14.88 6.43L14.88 6.43Q14.77 6.43 14.69 6.51L14.69 6.51L14.69 6.51Q14.62 6.59 14.62 6.71L14.62 6.71ZM23.93 8.26L23.93 10.43L26.10 10.43L26.10 12.05L21.97 12.05L21.97 3.00L26.10 3.00L26.10 4.59L23.93 4.59L23.93 6.72L25.96 6.72L25.96 8.26L23.93 8.26ZM32.21 6.93L32.21 7.91L30.34 7.91L30.34 6.71L30.34 6.71Q30.34 6.59 30.26 6.51L30.26 6.51L30.26 6.51Q30.18 6.43 30.07 6.43L30.07 6.43L29.30 6.43L29.30 6.43Q29.19 6.43 29.11 6.51L29.11 6.51L29.11 6.51Q29.04 6.59 29.04 6.71L29.04 6.71L29.04 10.57L29.04 10.57Q29.04 10.68 29.11 10.77L29.11 10.77L29.11 10.77Q29.19 10.85 29.30 10.85L29.30 10.85L30.07 10.85L30.07 10.85Q30.18 10.85 30.26 10.77L30.26 10.77L30.26 10.77Q30.34 10.68 30.34 10.57L30.34 10.57L30.34 9.37L32.21 9.37L32.21 10.35L32.21 10.35Q32.21 12.19 30.48 12.19L30.48 12.19L28.90 12.19L28.90 12.19Q27.16 12.19 27.16 10.35L27.16 10.35L27.16 6.93L27.16 6.93Q27.16 5.08 28.90 5.08L28.90 5.08L30.48 5.08L30.48 5.08Q32.21 5.08 32.21 6.93L32.21 6.93ZM36.93 5.22L38.78 5.22L37.38 8.43L39.00 12.05L37.13 12.05L35.84 9.21L35.28 9.21L35.28 12.05L33.40 12.05L33.40 3.00L35.28 3.00L35.28 7.67L35.91 7.67L36.93 5.22ZM44.63 4.54L44.63 12.05L42.67 12.05L42.67 4.70L42.67 4.70Q42.67 2.86 44.41 2.86L44.41 2.86L45.44 2.86L45.44 2.86Q46.47 2.86 46.90 3.53L46.90 3.53L46.90 3.53Q47.31 2.86 48.36 2.86L48.36 2.86L49.39 2.86L49.39 2.86Q51.13 2.86 51.13 4.70L51.13 4.70L51.13 12.05L49.17 12.05L49.17 4.54L49.17 4.54Q49.17 4.42 49.09 4.34L49.09 4.34L49.09 4.34Q49.01 4.26 48.90 4.26L48.90 4.26L48.15 4.26L48.15 4.26Q48.03 4.26 47.96 4.34L47.96 4.34L47.96 4.34Q47.88 4.42 47.88 4.54L47.88 4.54L47.88 12.05L45.92 12.05L45.92 4.54L45.92 4.54Q45.92 4.42 45.84 4.34L45.84 4.34L45.84 4.34Q45.77 4.26 45.65 4.26L45.65 4.26L44.90 4.26L44.90 4.26Q44.79 4.26 44.71 4.34L44.71 4.34L44.71 4.34Q44.63 4.42 44.63 4.54L44.63 4.54ZM54.14 5.08L55.72 5.08L55.72 5.08Q57.46 5.08 57.46 6.93L57.46 6.93L57.46 9.14L54.28 9.14L54.28 10.57L54.28 10.57Q54.28 10.68 54.36 10.77L54.36 10.77L54.36 10.77Q54.43 10.85 54.54 10.85L54.54 10.85L55.31 10.85L55.31 10.85Q55.43 10.85 55.50 10.77L55.50 10.77L55.50 10.77Q55.58 10.68 55.58 10.57L55.58 10.57L55.58 9.81L57.46 9.81L57.46 10.35L57.46 10.35Q57.46 12.19 55.72 12.19L55.72 12.19L54.14 12.19L54.14 12.19Q52.40 12.19 52.40 10.35L52.40 10.35L52.40 6.93L52.40 6.93Q52.40 5.08 54.14 5.08L54.14 5.08ZM54.28 6.65L54.28 7.91L55.58 7.91L55.58 6.65L55.58 6.65Q55.58 6.54 55.50 6.45L55.50 6.45L55.50 6.45Q55.43 6.37 55.31 6.37L55.31 6.37L54.54 6.37L54.54 6.37Q54.43 6.37 54.36 6.45L54.36 6.45L54.36 6.45Q54.28 6.54 54.28 6.65L54.28 6.65ZM60.23 5.08L60.52 5.08L60.52 5.08Q61.24 5.08 61.67 5.42L61.67 5.42L61.67 3.00L63.55 3.00L63.55 12.05L61.96 12.05L61.96 11.55L61.96 11.55Q61.53 12.19 60.52 12.19L60.52 12.19L60.23 12.19L60.23 12.19Q58.49 12.19 58.49 10.35L58.49 10.35L58.49 6.93L58.49 6.93Q58.49 5.08 60.23 5.08L60.23 5.08ZM61.67 10.57L61.67 10.57L61.67 6.71L61.67 6.71Q61.67 6.59 61.59 6.51L61.59 6.51L61.59 6.51Q61.52 6.43 61.40 6.43L61.40 6.43L60.63 6.43L60.63 6.43Q60.52 6.43 60.45 6.51L60.45 6.51L60.45 6.51Q60.37 6.59 60.37 6.71L60.37 6.71L60.37 10.57L60.37 10.57Q60.37 10.68 60.45 10.77L60.45 10.77L60.45 10.77Q60.52 10.85 60.63 10.85L60.63 10.85L61.40 10.85L61.40 10.85Q61.52 10.85 61.59 10.77L61.59 10.77L61.59 10.77Q61.67 10.68 61.67 10.57ZM66.73 4.37L66.73 4.37L66.73 4.37Q66.43 4.66 66.01 4.66L66.01 4.66L66.01 4.66Q65.59 4.66 65.28 4.36L65.28 4.36L65.28 4.36Q64.97 4.06 64.97 3.63L64.97 3.63L64.97 3.63Q64.97 3.21 65.28 2.90L65.28 2.90L65.28 2.90Q65.59 2.60 66.01 2.60L66.01 2.60L66.01 2.60Q66.43 2.60 66.73 2.90L66.73 2.90L66.73 2.90Q67.03 3.21 67.03 3.64L67.03 3.64L67.03 3.64Q67.03 4.07 66.73 4.37ZM66.95 12.05L65.07 12.05L65.07 5.22L66.95 5.22L66.95 12.05ZM71.74 5.73L71.74 5.22L73.32 5.22L73.32 12.05L71.74 12.05L71.74 11.55L71.74 11.55Q71.30 12.19 70.29 12.19L70.29 12.19L70.00 12.19L70.00 12.19Q68.26 12.19 68.26 10.35L68.26 10.35L68.26 6.93L68.26 6.93Q68.26 5.08 70.00 5.08L70.00 5.08L70.29 5.08L70.29 5.08Q71.30 5.08 71.74 5.73L71.74 5.73ZM71.44 10.57L71.44 10.57L71.44 6.71L71.44 6.71Q71.44 6.59 71.37 6.51L71.37 6.51L71.37 6.51Q71.29 6.43 71.18 6.43L71.18 6.43L70.41 6.43L70.41 6.43Q70.29 6.43 70.22 6.51L70.22 6.51L70.22 6.51Q70.14 6.59 70.14 6.71L70.14 6.71L70.14 10.57L70.14 10.57Q70.14 10.68 70.22 10.77L70.22 10.77L70.22 10.77Q70.29 10.85 70.41 10.85L70.41 10.85L71.18 10.85L71.18 10.85Q71.29 10.85 71.37 10.77L71.37 10.77L71.37 10.77Q71.44 10.68 71.44 10.57Z"></path></g><defs data-v-fde0c5aa=""><linearGradient data-v-fde0c5aa="" gradientTransform="rotate(25)" id="ce0aad5e-b6bb-4835-a313-b7365505950c" x1="0%" y1="0%" x2="100%" y2="0%"><stop data-v-fde0c5aa="" offset="0%" stop-color="#0A3732" stop-opacity="1"></stop><stop data-v-fde0c5aa="" offset="100%" stop-color="#55C388" stop-opacity="1"></stop></linearGradient></defs><g data-v-fde0c5aa="" id="673be203-6355-4b0e-bec5-b3384b4e7da7" stroke="none" fill="url(#ce0aad5e-b6bb-4835-a313-b7365505950c)" transform="matrix(2.9623908665358853,0,0,2.9623908665358853,105.56413700196173,81.01158495264832)"><g><path d="M24 5v-.917L22.857 3H1.143L0 4.083v16.834L1.143 22H9.75L9 25H7v1h6.69l-.69-.653V25h-2.96l.75-3H13v-1H1.5l-.5-.5v-16l.5-.5h21l.5.5V5h1zM13 18H1v-1h12v1zm-1 .5l.866.5v1l-.866.5-.866-.5v-1l.866-.5z"></path><path d="M19 22h-4V9h12v1h1V7.083L26.857 6H15.143L14 7.083v17.834L15.143 26H19.8l-.8-.8V25h-3.5l-.5-.5V23h4v-1zM15 8v-.5l.5-.5h11l.5.5V8H15z"></path><path d="M21 14v8h8v-8h-8zm0-1v-.5l.5-.5h7l.5.5v.5h-8zm0 10v1.5l.5.5h7l.5-.5V23h-8zm-1-10.917L21.143 11h7.714L30 12.083v12.834L28.857 26h-7.714L20 24.917V12.083zm5 11.167l.65.375v.75l-.65.375-.65-.375v-.75l.65-.375z"></path></g></g><!----></svg>